<svg xmlns="http://www.w3.org/2000/svg" viewBox="0 0 183.5 67.67" version="1.1"><defs><style>.cls-1,.cls-3,.cls-7{fill:#fff;}.cls-2{fill:#fa0;opacity:0.4;}.cls-3{opacity:0.6;}.cls-4{fill:#3a2929;}.cls-5{fill:#e32b13;}.cls-6{opacity:0.73;}.cls-7{opacity:0.5;}</style></defs><title>logopollo</title><g id="Capa_6" data-name="Capa 6"><g id="Nuevo_símbolo" data-name="Nuevo símbolo"><path class="cls-1" d="M75.24,52.05l-.1.17.42-.49A1,1,0,0,0,75.24,52.05Z"/><path class="cls-2" d="M63.81,54.14c-3.12,2.18-9.89,1.47-9.89,1.47l-9.32.09A32.24,32.24,0,0,1,37,54.87l-7-1.62c-10.33-1.95-15-11.87-15-11.87C6.92,24.73,30.79,14.1,30.79,14.1L28,13.92c-1.16-.18-.71-1.51-.71-1.51.45-2.83,6.41-3.28,6.41-3.28-3.56-1.15-1-2.48-1-2.48,5.93-2.12,8.17-.62,8.92.27a.37.37,0,0,0,.62-.09.38.38,0,0,1,.27-.21c9.12-1.85,10.33,5.17,10.46,8a1,1,0,0,0,1.18.88l3.6-.87a1.78,1.78,0,0,1,.54,0c4.44.33,2.25,3.87,1.73,5.23l0,0a1.23,1.23,0,0,0,1.47,1.59l4.09-1a1.22,1.22,0,0,1,1.15.32,1.93,1.93,0,0,0,1.71.53L73,20.48a3.19,3.19,0,0,0,1.95-1.2L76.65,17C69.64,7.71,57,1.52,42.5,1.52c-22.06,0-39.94,14.4-39.94,32.16S20.44,65.83,42.5,65.83a45.21,45.21,0,0,0,28-9.21L65.76,54A1.85,1.85,0,0,0,63.81,54.14Z"/><path class="cls-1" d="M83.1,24.39a2.54,2.54,0,0,0-.13.25Z"/><path class="cls-3" d="M177.27,42.81l-1.13-.1s-1.61-3.54-1.58-5.92a2.54,2.54,0,0,1,1-2c1.26-1,4.2-3.45,4.23-5.78a1.06,1.06,0,0,0-1-1l-.64,0a1,1,0,0,1-1-1.09c.37-2.67.56-9.45-8.2-5.65a2.94,2.94,0,0,1-.69.21h0a2.86,2.86,0,0,1-2.17-.52l-2.17-1.6s-2.87-3.52-4.07.73l-.13,1a1,1,0,0,1-1.48.71l-1.69-1a1.48,1.48,0,0,0-1.21-.14l-1.93.61a1.5,1.5,0,0,1-1.12-.09l-.61-.3a1.7,1.7,0,0,0-1.45,0l-.69.31a.77.77,0,0,1-1.08-.68c0-2-1.48-6.19-5.18-5.8-4.69.5-4.23.18-5.35,5a1.49,1.49,0,0,1-1.36,1.15l-4.33.27a.38.38,0,0,1-.29-.66l2.12-2a.77.77,0,0,0,0-1.13L129,12.6a.92.92,0,0,0-1.33.1l-5.4,6.58a1.4,1.4,0,0,1-1.33.49c-1.53-.29-4.77-.78-5.27,0a1.85,1.85,0,0,1-2,.73A17.07,17.07,0,0,1,111.57,19a1.64,1.64,0,0,0-.72-.34c-.91-.19-3-.37-3.77,1.57s-3-.42-4.22-1.83a1.18,1.18,0,0,0-1.71-.07l-1.67,1.63a1.81,1.81,0,0,1-1.49.5l-1.62-.2a1.92,1.92,0,0,0-1.41.39l-.28.22a1.46,1.46,0,0,1-1.39.22l-2.56-.92a1.63,1.63,0,0,0-1.14,0c-1.44.55-5.42,2.36-6.51,4.26l2.59-5.06a2.33,2.33,0,0,0-.41-2.43l-4.1-4.14a.92.92,0,0,0-1.39.09L76.65,17,74.9,19.28A3.19,3.19,0,0,1,73,20.48l-4.48.85a1.93,1.93,0,0,1-1.71-.53,1.22,1.22,0,0,0-1.15-.32l-4.09,1a1.23,1.23,0,0,1-1.47-1.59l0,0c.52-1.37,2.72-4.91-1.73-5.23a1.78,1.78,0,0,0-.54,0l-3.6.87A1,1,0,0,1,53,14.66c-.12-2.87-1.34-9.89-10.46-8a.38.38,0,0,0-.27.21.37.37,0,0,1-.62.09c-.75-.89-3-2.39-8.92-.27,0,0-2.58,1.33,1,2.48,0,0-6,.44-6.41,3.28,0,0-.45,1.33.71,1.51l2.76.18S6.92,24.73,14.94,41.38c0,0,4.72,9.92,15,11.87l7,1.62a32.24,32.24,0,0,0,7.58.82l9.32-.09s6.76.72,9.89-1.47A1.85,1.85,0,0,1,65.76,54l4.72,2.58a35.42,35.42,0,0,0,4.66-4.4l.1-.17a1,1,0,0,1,.32-.32,1,1,0,0,1,1.18.13c2.08,2,8,6.31,16.75,1.32a1.25,1.25,0,0,1,1.48.17,8.57,8.57,0,0,0,9.45,2l1.11-.61a1.11,1.11,0,0,1,1.21.09c1,.78,3.43,2,6.6-.53a1.28,1.28,0,0,1,1.44-.12c1.87,1.08,7,3.29,13.53-.29a1.39,1.39,0,0,1,1.37,0l5.92,3.45a1.17,1.17,0,0,0,1.65-.54l2.17-5a.45.45,0,0,1,.83,0c.86,2,3.24,6,7.9,4.5a41.9,41.9,0,0,0,5.78-2.16,2,2,0,0,1,1.93.12l5.07,3.32a1.22,1.22,0,0,0,1.74-.43l3.73-6.77a1.23,1.23,0,0,1,1.41-.59c2,.57,7,1.13,10.1-5.87A.8.8,0,0,0,177.27,42.81Z"/><path class="cls-4" d="M42,16.1c-5.15-1.66-8.45.73-8.45.73l2.07-.09a1.68,1.68,0,0,0-.3.94c0,1.15,1.23,2.08,2.74,2.08s2.74-.93,2.74-2.08a1.74,1.74,0,0,0-.45-1.15L42,16.2Zm-4.35,2a.62.62,0,1,1,.63-.62A.62.62,0,0,1,37.65,18.08Z"/><path class="cls-5" d="M79.3,15.74s-6.48,11.06-6.55,13.82c0,1.2-.28,4,3.07,4.05a8.13,8.13,0,0,0,5.41-2.06s.94-.93-.73-.93H78.9s-1.75.47-.4-3.19a36.72,36.72,0,0,1,3.41-6.91,2.52,2.52,0,0,0,0-2.46s-1-2.86-1.2-2.59C80.7,15.47,79.7,15.1,79.3,15.74Z"/><path class="cls-5" d="M63.54,24.49s-4.47,2.68-3.34,5.6c.14.36.47.85,1.71.27,1.39-.66,2.2-2.72,2.43-5.51.11-1.36,1.19-2,5.25-1.52l.72.06c1,.05,3.87.45,1.35,3.28-1,1.12-1.9.9-3.55,3.78-1.26,2.2-4.49,3.35-7.83,3.17-2.11-.11-8-2.25-2.88-8a9.84,9.84,0,0,1,4-2.67C62.54,22.58,66.23,22.89,63.54,24.49Z"/><path class="cls-5" d="M100.78,20.57c-.18,4.41-.85,7.73-1.87,8.77,0,0-2.25,2.75-.8,3.63a2.84,2.84,0,0,0,4-1.06l2-4.07s2.32-3.5,1.42.46c0,0-1.69,3.26-1.25,4.67a4,4,0,0,0,3.56.4s2.85-2.39,3.65-5.07c0,0,.89-.55.71.86,0,0-.58,4,0,4.45,0,0,4.9,1.46,6.39-2,0,0,.45-1.24-1.16-.89,0,0-1,.64,1.07-3.53,0,0,2.58-5.68-.71-5.95,0,0-4.19-.09-6,2.13h-.89s.09-4.38-5.25-.62c-.29.2-.42.47-1.07.18C104.61,23,100.84,19.11,100.78,20.57Z"/><path class="cls-5" d="M127.68,16c-4.34,1.93-8.55,10.32-6.95,16.54.79,3.08,9.34,3,12.24-2a1.27,1.27,0,0,0,.09-.19,8.78,8.78,0,0,0,.51-2.2,1.2,1.2,0,0,1,.9-1.07h0a1.21,1.21,0,0,0,.9-1.27c-.08-1-.28-2.43-.74-2.26-.71.27-2.27.36-2.76.53s-3.12-2.75-4.63,1.25c-.15.41-.78,1,.89,1.77.93.4,1.5,2.25-1.83,3.15a1.16,1.16,0,0,1-.36,0c-.69,0-2.52-.63.44-6.37a1.23,1.23,0,0,1,.13-.2c.51-.64,3.54-4.45,4.2-5.49C131,17.74,129.3,15.33,127.68,16Z"/><path class="cls-5" d="M90.23,24.75s-4.47,2.68-3.34,5.6c.14.36.47.85,1.71.27C90,30,90.8,27.9,91,25.11c.12-1.41,1.27-2.06,5.68-1.46,0,0,4.63-.06,1.64,3.29-1,1.12-1.9.9-3.55,3.78-1.26,2.2-4.49,3.35-7.83,3.17-2.11-.11-8-2.25-2.88-8a9.84,9.84,0,0,1,4-2.67C89.23,22.85,92.93,23.16,90.23,24.75Z"/><path class="cls-5" d="M87.27,43.78s-3.67,1.12-3.12,4.88c.06.38.47.86,1.73.27,1.41-.67,2.23-2.76,2.47-5.59.12-1.43,1.29-2.09,5.75-1.48,0,0,4.69-.06,1.66,3.33-1,1.14-1.93.91-3.6,3.83-1.28,2.23-5.35,3.39-8.73,3.21-2.14-.12-7.34-2.28-2.11-8.08a10,10,0,0,1,4.06-2.7C86.52,41,90,42.16,87.27,43.78Z"/><path class="cls-5" d="M105.35,43.62s-4.53,1.92-3.38,4.88c.14.36,1.53,1.71,2.26.53.43-.69,3.86-7.51,6.39-7.74.91-.08,1.69.41.81,3.74-.39,1.47-.59,1.17-2.26,4.09-.3.52,2.52,0,2.92.63.54.84-.05,1.74-1.09,2.1s-8.71.28-10,.21c-2.14-.12-7.07-2.28-1.85-8.08a8.35,8.35,0,0,1,4.06-2.7C108,40.14,111,41.36,105.35,43.62Z"/><path class="cls-5" d="M149.46,25.47s-4.12,1.91-3.08,4.86c.13.36,1.4,1.71,2.06.53.39-.69,3.51-7.49,5.81-7.72.83-.08,1.54.4.74,3.73-.35,1.47-.54,1.17-2.06,4.08-.27.51,3.1-.52,3.46.1.49.83-.85,2.27-1.79,2.63s-7.92.28-9.12.21c-1.95-.12-6.43-2.27-1.68-8.06a7.6,7.6,0,0,1,3.69-2.7C151.89,22,154.58,23.23,149.46,25.47Z"/><path class="cls-5" d="M139.74,34s-7,.16-4.5-4.8c0,0,3.38-6.25,3.92-6.64a18.73,18.73,0,0,1,4.45.19c.43.17-.15,1.07-.36,1.36-1.12,1.52-3.74,4.48-4.14,6.73-.06.34-.58,1.28.72,1.46C139.83,32.26,142.15,33.41,139.74,34Z"/><ellipse class="cls-5" cx="142.53" cy="18.86" rx="3.05" ry="2.33"/><path class="cls-5" d="M120.38,48.63c-.77-1.49-3.77-3.38-2.28-6.31,1.08-2.11,3.44-2.91,9.29,0a2.58,2.58,0,0,1,1.29,1.37,2.43,2.43,0,0,1-.77,2.68c-.43.43-.59.7-2.12-.93-.49-.52-3.66-2.34-3.07-1.06a14.56,14.56,0,0,0,2.2,4.25c.73,1.15,1.6,3.92-3.21,3.92,0,0-3,.11-3.94,0-1.16-.13-4.61-1-2.67-3.79.47-.66,1.85.3,2.34.66s.17.43,2,.6C119.83,50.05,121.09,50,120.38,48.63Z"/><path class="cls-5" d="M136.69,37.05l-1.47,4a.37.37,0,0,1-.35.24h-4.38a.37.37,0,0,0-.37.37v1.83a.37.37,0,0,0,.37.37h2.27s1.53.07.14,2.28v0a25.91,25.91,0,0,1-2.13,3.51c-.42.45-.8,1,.87,2.29.63.5,2.3,2,3.24,0,0,0,2.12-5,3-6.68.22-.42.23-1.26,1.54-1.13l2.8.06a.37.37,0,0,0,.34-.21l1-2.19a.37.37,0,0,0-.33-.52h-2.64a.37.37,0,0,1-.32-.54l.51-.92s1-1.68-3.67-3A.37.37,0,0,0,136.69,37.05Z"/><path class="cls-5" d="M152.88,41.52a8,8,0,0,0-4.06.67c-1.71.75-4.34,2.16-5.72,4.14a4.17,4.17,0,0,0,2.08,6.28c1.8.66,4.59.74,8.62-1.51a1.42,1.42,0,0,0,.76-1.21c0-.52-.36-1-1.9-.49,0,0-3.78,1.73-4.81.93,0,0-.89-.35,0-.8,0,0,7.3-1.14,8.28-5.14.06-.26-.09.25,0,0C156.45,43.61,155.76,41.83,152.88,41.52Zm-5,6c0-2.62,2.74-2.88,3.79-2.89a.41.41,0,0,1,.39.55c-.39,1.14-2.76,2.23-3.74,2.65A.32.32,0,0,1,147.87,47.51Z"/><path class="cls-5" d="M157.25,51.91l2.37,1.77a.87.87,0,0,0,1.22-.17l1-1.66a5.19,5.19,0,0,0,.78-1.35,13.75,13.75,0,0,1,2-4.62,1.66,1.66,0,0,0,.17-.22c.23-.36,1.33-1.75,2-.16.78,1.82,1.7,2.93,5.42.87a1.7,1.7,0,0,0,.61-.56c.3-.46.36-1.11-2-.87a1.16,1.16,0,0,1-.1-1.42c.31-.48.68-.53.53-1.08-.29-1.09-1.34-2.78-3.36-.49a3,3,0,0,0-.58,1c-.12.35-.34.68-.66.06-.21-.41-2.2-2-2.85-2.92-.2-.28-.9-.53-1.08-.23-.91,1.51-3,5.06-3.25,6.35a16,16,0,0,1-2.14,4.36C157,51,156.84,51.6,157.25,51.91Z"/><path class="cls-5" d="M65.42,51.13l3.52,2.08a.69.69,0,0,0,1-.32l2.65-6.21a2.07,2.07,0,0,0,.11-.35c.1-.45.5-1.63,1.65-.75a2.27,2.27,0,0,0,.32.21c.57.3,2.33,1.07,3.73.12h0a1.44,1.44,0,0,0-.07-2.51c-.33-.19-.53-.48-.13-.9a1.45,1.45,0,0,0,.39-.66c.16-.67,0-1.85-2.67-2.19a1.07,1.07,0,0,0-1.09.59c-.32.66-.9,1.56-1.59,1.33a17.25,17.25,0,0,1-2.56-1.84,1.09,1.09,0,0,0-1.74.39v0A21.56,21.56,0,0,0,68,43.33c.07.26-2.12,5.24-2.87,6.93A.68.68,0,0,0,65.42,51.13Z"/><path class="cls-5" d="M160.87,21.69l-3.49,8.62s-1.07,1.24.76,2a25.5,25.5,0,0,0,2.62,1.29,1.23,1.23,0,0,0,1.51-.53,2.72,2.72,0,0,0,.3-1.09,1.19,1.19,0,0,1,.09-.38l1.74-3.89S166.24,25,166,28l-.8,5.1a.21.21,0,0,1,0,.07c-.1.18-.51,1.08.84,1.08,0,0,3.51.61,7.41-3.23a.4.4,0,0,0,.09-.13c.13-.31.52-1.42-1-.91l-.07,0a4.33,4.33,0,0,1-1.21.47.39.39,0,0,1-.41-.54l1.38-3.23s2.5-6.32-5.14-3.43a2.91,2.91,0,0,0-.9.57c-.3.27-.74.49-1-.2A2.7,2.7,0,0,0,162.92,22a.72.72,0,0,1-.52-.35l-.15-.26a.71.71,0,0,0-.62-.36h0a.71.71,0,0,0-.7.56h0A.71.71,0,0,1,160.87,21.69Z"/><path class="cls-5" d="M61.07,35.36l-8.47.54a5.41,5.41,0,0,1-2.9-.62C47.32,34,43.54,31,48.16,26.06l.76-.72a6.06,6.06,0,0,0,1.29-1.64c.21-.41.83-.79,2.66.15,0,0,5.61-.89,3.21-4,0,0,4.42-4-.89-3.54l-4.45,1.33s-9.38-12-27.15,1.77a20.79,20.79,0,0,0-5.65,6.65c-3,5.57-5.52,15.25,6.53,22.41,0,0,10.33,7.26,26.27,4.52l2.94.09s4.45.53,6.95-.8c0,0,5.61-.53,3.56-7.8C64.18,44.48,74,36.16,61.07,35.36Zm-1.53,6.36a1.49,1.49,0,0,1-1,.4l-4.35.2a1.81,1.81,0,0,0-1.62,1.35,3.56,3.56,0,0,0,.21,1.86,2,2,0,0,0,2.49,1.18c.18-.06.36-.13.52-.21a3.17,3.17,0,0,1,2.27-.14c2.59.83-.69,2.73-.69,2.73-2.94,1.33-5.61-1.15-5.61-1.15-2.49-1.51-2.58.71-2.58.71L48.58,51a1.38,1.38,0,0,1-1.16,1c-11.33,1.39-22.06-4.82-22.06-4.82l-.31-.2c-8.41-5.68-8.21-12.64-6.35-17.72a20.66,20.66,0,0,1,7.16-9.45c16.22-12,22.47-.45,22.47-.45C38.45,23.56,37.19,29.44,37.1,31.19c0,.6.07-.59,0,0C35.74,42.56,54.16,40,58.22,39.79,61.37,39.66,60.27,41,59.54,41.72Z"/><path class="cls-5" d="M46.2,12.8l3.56,2.14s2.66-5.65-5.18-7.48h-.06c-.29,0-2.34-.22-1.3.89S45.57,8.8,46.2,12.8Z"/><path class="cls-5" d="M39.52,12.28h5s-1.69-5.87-10-4.86c0,0-1,.12-.4.79C34.17,8.21,39,8.16,39.52,12.28Z"/><path class="cls-5" d="M34.33,12.79l3.4-.5S34.19,8.84,29.92,11a.32.32,0,0,0,.1.6c1.45.21,4.33.45,4.24,1.15A.06.06,0,0,0,34.33,12.79Z"/><g class="cls-6"><path d="M161.62,57.94a1.36,1.36,0,0,1-.74-.22L155.8,54.4a1.81,1.81,0,0,0-1.8-.11,42,42,0,0,1-5.8,2.17,6.53,6.53,0,0,1-2,.32c-3.51,0-5.38-3.3-6.08-4.9a.31.31,0,0,0-.29-.19.32.32,0,0,0-.29.19l-2.17,5a1.3,1.3,0,0,1-1.84.6L129.62,54a1.26,1.26,0,0,0-1.24,0c-6.54,3.61-11.73,1.41-13.66.29a1.14,1.14,0,0,0-1.29.11c-3.3,2.66-5.83,1.26-6.77.54a1,1,0,0,0-1.07-.08l-1.11.61a8.73,8.73,0,0,1-9.61-2,1.11,1.11,0,0,0-1.32-.15c-8.83,5-14.77.73-16.91-1.34a.83.83,0,0,0-1.29.16c-3.32,5.46-3.81,5.22-4,5.13-.48-.24-3.76-2-5.67-3.09a1.72,1.72,0,0,0-1.81.09c-3.13,2.19-9.7,1.52-10,1.49l-9.3.09A32.41,32.41,0,0,1,37,55l-7-1.62C19.69,51.45,14.87,41.54,14.82,41.44a14.73,14.73,0,0,1-.74-11.87C17.26,21,27.91,15.35,30.27,14.2L28,14.05a1,1,0,0,1-.76-.45,1.65,1.65,0,0,1-.07-1.23c.37-2.38,4.41-3.11,5.95-3.31-.91-.37-1.39-.79-1.42-1.26-.06-.72.93-1.24,1-1.26,5.9-2.11,8.23-.72,9.09.3a.22.22,0,0,0,.21.08.24.24,0,0,0,.19-.14.51.51,0,0,1,.36-.29c3.21-.65,5.77-.27,7.58,1.14,2.46,1.91,3,5.22,3,7a.81.81,0,0,0,.33.61.83.83,0,0,0,.69.14l3.6-.87a1.91,1.91,0,0,1,.59-.05,3.09,3.09,0,0,1,2.59,1.16c.66,1.09,0,2.65-.5,3.69-.09.21-.18.4-.24.57v0A1.06,1.06,0,0,0,60.39,21a1.1,1.1,0,0,0,1.09.33l4.09-1a1.36,1.36,0,0,1,1.28.35,1.79,1.79,0,0,0,1.6.49l4.48-.85a3.06,3.06,0,0,0,1.87-1.15l4.89-6.42a1.06,1.06,0,0,1,1.59-.1l4.1,4.14a2.45,2.45,0,0,1,.44,2.57l-2,3.94A21.21,21.21,0,0,1,89.56,20a1.77,1.77,0,0,1,1.23,0l2.56.92a1.31,1.31,0,0,0,1.26-.2l.28-.22a2,2,0,0,1,1.51-.42l1.62.2a1.67,1.67,0,0,0,1.38-.46l1.67-1.63a1.31,1.31,0,0,1,1.9.08c1.48,1.7,2.68,2.57,3.39,2.45a.82.82,0,0,0,.6-.59c.81-2.05,3-1.84,3.92-1.65a1.78,1.78,0,0,1,.78.37,16.55,16.55,0,0,0,2,1.53h.13a1.61,1.61,0,0,0,1.75-.68c.51-.81,3.22-.5,5.41-.09a1.26,1.26,0,0,0,1.21-.44l5.4-6.58a1.06,1.06,0,0,1,1.52-.11l5.08,4.58a.9.9,0,0,1,0,1.32l-2.12,2a.25.25,0,0,0,.19.43l4.33-.27a1.36,1.36,0,0,0,1.24-1l.24-1c.81-3.6.85-3.64,4.52-4l.71-.07a4,4,0,0,1,3.16,1,7.39,7.39,0,0,1,2.16,4.94.62.62,0,0,0,.29.52.64.64,0,0,0,.6,0l.69-.31a1.83,1.83,0,0,1,1.56,0l.61.3a1.36,1.36,0,0,0,1,.08l1.93-.61a1.61,1.61,0,0,1,1.32.15l1.69,1a.85.85,0,0,0,1.28-.61l.13-1c.37-1.3.93-2,1.66-2.19,1.23-.25,2.5,1.21,2.63,1.38l2.15,1.59a2.74,2.74,0,0,0,2.07.5h0a2.81,2.81,0,0,0,.66-.2c3.14-1.36,5.45-1.5,6.89-.42,1.86,1.41,1.74,4.5,1.5,6.22a.79.79,0,0,0,.17.61,1,1,0,0,0,.68.33l.64,0A1.19,1.19,0,0,1,179.93,29c0,2.39-3,4.91-4.29,5.89a2.4,2.4,0,0,0-1,1.89,17.58,17.58,0,0,0,1.54,5.8l1,.09a.94.94,0,0,1,.77,1.31c-3.11,7.1-8.21,6.53-10.26,5.95a1.09,1.09,0,0,0-1.26.53l-3.73,6.77a1.35,1.35,0,0,1-1.18.7Zm-6.82-4.1a2.1,2.1,0,0,1,1.15.34L161,57.49a1.09,1.09,0,0,0,1.55-.38l3.73-6.77a1.36,1.36,0,0,1,1.56-.66c2,.56,6.92,1.11,9.94-5.8a.67.67,0,0,0-.55-.94l-1.2-.11,0-.07c-.07-.15-1.63-3.6-1.6-6a2.66,2.66,0,0,1,1.06-2.09c1.25-1,4.15-3.41,4.18-5.68a.93.93,0,0,0-.87-.91l-.64,0a1.22,1.22,0,0,1-.87-.43,1,1,0,0,1-.22-.81c.23-1.66.36-4.64-1.4-6-1.35-1-3.58-.87-6.62.45a3.08,3.08,0,0,1-.72.22h0A3,3,0,0,1,166,21l-2.19-1.63s-1.26-1.53-2.38-1.3c-.63.13-1.12.8-1.46,2l-.13,1a1.12,1.12,0,0,1-1.68.8l-1.69-1a1.34,1.34,0,0,0-1.1-.13l-1.93.61a1.62,1.62,0,0,1-1.22-.09l-.61-.3a1.56,1.56,0,0,0-1.33,0l-.69.31a.91.91,0,0,1-.85-.06.89.89,0,0,1-.42-.74,7.1,7.1,0,0,0-2.07-4.75,3.72,3.72,0,0,0-3-.92l-.71.07c-3.51.36-3.51.36-4.29,3.81l-.24,1a1.63,1.63,0,0,1-1.48,1.25l-4.33.27a.51.51,0,0,1-.39-.88l2.12-2a.64.64,0,0,0,0-.93l-5.08-4.58a.79.79,0,0,0-1.14.08l-5.4,6.58a1.53,1.53,0,0,1-1.46.53c-2.89-.54-4.81-.55-5.14,0a1.87,1.87,0,0,1-2,.81h-.11c-.07,0-.22,0-2.14-1.59a1.52,1.52,0,0,0-.66-.32c-.84-.17-2.88-.37-3.61,1.49a1.07,1.07,0,0,1-.81.75c-1,.17-2.54-1.28-3.64-2.54a1,1,0,0,0-.75-.36,1,1,0,0,0-.77.29L99.58,20a1.94,1.94,0,0,1-1.59.54l-1.62-.2a1.78,1.78,0,0,0-1.31.36l-.28.22a1.58,1.58,0,0,1-1.51.24l-2.56-.92a1.5,1.5,0,0,0-1,0c-1.47.56-5.35,2.35-6.43,4.17l-.14.27-.24-.11A2.68,2.68,0,0,1,83,24.3l2.57-5A2.18,2.18,0,0,0,85.18,17l-4.1-4.13a.79.79,0,0,0-1.19.08L75,19.36a3.32,3.32,0,0,1-2,1.25l-4.48.85a2.06,2.06,0,0,1-1.83-.56,1.09,1.09,0,0,0-1-.28l-4.09,1a1.38,1.38,0,0,1-1.35-.41,1.32,1.32,0,0,1-.27-1.35l0,0c.06-.16.15-.36.25-.58.44-1,1.1-2.48.52-3.45a2.86,2.86,0,0,0-2.38-1,1.64,1.64,0,0,0-.5,0l-3.6.87a1.1,1.1,0,0,1-.92-.19,1.07,1.07,0,0,1-.43-.82c-.08-1.76-.56-5-2.93-6.83-1.75-1.36-4.23-1.73-7.36-1.09a.24.24,0,0,0-.17.14.5.5,0,0,1-.39.29A.49.49,0,0,1,41.57,7c-.66-.78-2.83-2.35-8.78-.23,0,0-.86.45-.81,1,0,.3.36.77,1.79,1.23l.65.21-.68.05c-.06,0-5.87.47-6.29,3.17a1.43,1.43,0,0,0,0,1,.75.75,0,0,0,.56.33l3.29.21-.49.22c-.13.06-13,5.88-16.52,15.45a14.48,14.48,0,0,0,.73,11.66c0,.1,4.81,9.88,15,11.8l7,1.62a32.14,32.14,0,0,0,7.55.82l9.32-.09c.08,0,6.76.69,9.81-1.44a2,2,0,0,1,2.09-.1C67.73,55,71,56.77,71.48,57c.05,0,.63-.08,3.64-5a1.1,1.1,0,0,1,1.7-.22c2.1,2,7.92,6.23,16.59,1.3a1.38,1.38,0,0,1,1.64.19,8.47,8.47,0,0,0,9.3,2l1.1-.61a1.24,1.24,0,0,1,1.36.1c1.1.85,3.4,1.91,6.44-.53a1.4,1.4,0,0,1,1.59-.13c1.89,1.09,7,3.25,13.4-.3a1.53,1.53,0,0,1,1.5,0l5.92,3.45a1,1,0,0,0,1.46-.47l2.17-5a.59.59,0,0,1,1.08,0c.8,1.82,3.15,5.88,7.73,4.43A41.74,41.74,0,0,0,153.88,54,2.05,2.05,0,0,1,154.8,53.83Z"/></g><polygon class="cls-4" points="28.72 57.57 28.5 57.09 31.49 55.69 31.61 53.53 32.15 53.56 32.01 56.04 28.72 57.57"/><polygon class="cls-4" points="31.95 58.51 31.61 56.62 30.84 57.93 30.38 57.66 31.88 55.11 32.48 58.41 31.95 58.51"/><polygon class="cls-4" points="35.26 57.64 34.96 57.2 37.08 55.78 37.37 56.22 35.26 57.64"/><polygon class="cls-4" points="37.15 58.25 36.63 58.14 37.03 56.28 37.23 55.03 37.76 55.11 37.55 56.37 37.15 58.25"/><polygon class="cls-4" points="38.87 58.3 37.09 56.17 37.5 55.83 39.28 57.96 38.87 58.3"/><polygon class="cls-7" points="31.41 53.08 32.08 53.34 32.04 55.6 32.57 58.39 35.38 56.71 37.13 55.87 37.56 53.87 35.2 53.34 31.41 53.08"/></g></g></svg>

